<mxfile host="app.diagrams.net" modified="2021-01-28T02:48:24.501Z" agent="5.0 (Macintosh; Intel Mac OS X 10_15_4) AppleWebKit/537.36 (KHTML, like Gecko) Chrome/75.0.3770.80 Safari/537.36" etag="41xEpKmQD3bGEZAZKBvX" version="14.2.7" type="github">
  <diagram name="Page-1" id="e7e014a7-5840-1c2e-5031-d8a46d1fe8dd">
    <mxGraphModel dx="1666" dy="771" grid="1" gridSize="10" guides="1" tooltips="1" connect="1" arrows="1" fold="1" page="1" pageScale="1" pageWidth="1169" pageHeight="826" background="#ffffff" math="0" shadow="0">
      <root>
        <mxCell id="0" />
        <mxCell id="1" parent="0" />
        <mxCell id="WTrDPClQdcEuxtkSHwnH-42" value="&lt;font style=&quot;font-size: 14px&quot;&gt;import&amp;nbsp;导入系统&lt;/font&gt;" style="whiteSpace=wrap;html=1;aspect=fixed;fillColor=#97D077;" parent="1" vertex="1">
          <mxGeometry x="705" y="337.5" width="115" height="115" as="geometry" />
        </mxCell>
        <mxCell id="WTrDPClQdcEuxtkSHwnH-43" value="&lt;font style=&quot;font-size: 18px&quot;&gt;xxl-job&lt;/font&gt;" style="rounded=1;whiteSpace=wrap;html=1;fillColor=#FFD966;" parent="1" vertex="1">
          <mxGeometry x="702.5" y="190" width="120" height="60" as="geometry" />
        </mxCell>
        <mxCell id="WTrDPClQdcEuxtkSHwnH-46" value="Client" style="aspect=fixed;perimeter=ellipsePerimeter;html=1;align=center;shadow=0;dashed=0;spacingTop=3;image;image=img/lib/active_directory/laptop_client.svg;fillColor=#FFD966;" parent="1" vertex="1">
          <mxGeometry x="190" y="345" width="90" height="100" as="geometry" />
        </mxCell>
        <mxCell id="WTrDPClQdcEuxtkSHwnH-47" value="" style="html=1;dashed=0;whitespace=wrap;fillColor=#2875E2;strokeColor=#ffffff;points=[[0.005,0.63,0],[0.1,0.2,0],[0.9,0.2,0],[0.5,0,0],[0.995,0.63,0],[0.72,0.99,0],[0.5,1,0],[0.28,0.99,0]];shape=mxgraph.kubernetes.icon;prIcon=api" parent="1" vertex="1">
          <mxGeometry x="420" y="335" width="130" height="110" as="geometry" />
        </mxCell>
        <mxCell id="WTrDPClQdcEuxtkSHwnH-51" value="" style="outlineConnect=0;dashed=0;verticalLabelPosition=bottom;verticalAlign=top;align=center;html=1;shape=mxgraph.aws3.internet_gateway;fillColor=#F58536;gradientColor=none;" parent="1" vertex="1">
          <mxGeometry x="220.5" y="190" width="69" height="72" as="geometry" />
        </mxCell>
        <mxCell id="WTrDPClQdcEuxtkSHwnH-56" value="对象存储 OSS" style="text;html=1;align=center;verticalAlign=middle;resizable=0;points=[];autosize=1;" parent="1" vertex="1">
          <mxGeometry x="210" y="170" width="90" height="20" as="geometry" />
        </mxCell>
        <mxCell id="WTrDPClQdcEuxtkSHwnH-57" value="" style="endArrow=classic;html=1;exitX=0.429;exitY=1.033;exitDx=0;exitDy=0;exitPerimeter=0;" parent="1" source="WTrDPClQdcEuxtkSHwnH-43" edge="1">
          <mxGeometry relative="1" as="geometry">
            <mxPoint x="760" y="260" as="sourcePoint" />
            <mxPoint x="754" y="330" as="targetPoint" />
          </mxGeometry>
        </mxCell>
        <mxCell id="WTrDPClQdcEuxtkSHwnH-58" value="定时触发 10s&lt;br&gt;&lt;span style=&quot;font-size: 12px ; background-color: rgb(248 , 249 , 250)&quot;&gt;扫描未处理的导入任务，解析任务中的 excel 并生成导入明细&lt;/span&gt;" style="edgeLabel;resizable=0;html=1;align=center;verticalAlign=middle;" parent="WTrDPClQdcEuxtkSHwnH-57" connectable="0" vertex="1">
          <mxGeometry relative="1" as="geometry">
            <mxPoint x="8.51" y="-10.98" as="offset" />
          </mxGeometry>
        </mxCell>
        <mxCell id="WTrDPClQdcEuxtkSHwnH-61" value="" style="outlineConnect=0;fontColor=#232F3E;gradientColor=none;fillColor=#3334B9;strokeColor=none;dashed=0;verticalLabelPosition=bottom;verticalAlign=top;align=center;html=1;fontSize=12;fontStyle=0;aspect=fixed;pointerEvents=1;shape=mxgraph.aws4.rds_mysql_instance;" parent="1" vertex="1">
          <mxGeometry x="970" y="356" width="78" height="78" as="geometry" />
        </mxCell>
        <mxCell id="WTrDPClQdcEuxtkSHwnH-67" value="" style="endArrow=classic;html=1;exitX=1;exitY=0.5;exitDx=0;exitDy=0;" parent="1" source="WTrDPClQdcEuxtkSHwnH-42" target="WTrDPClQdcEuxtkSHwnH-61" edge="1">
          <mxGeometry relative="1" as="geometry">
            <mxPoint x="759" y="452" as="sourcePoint" />
            <mxPoint x="759" y="560" as="targetPoint" />
          </mxGeometry>
        </mxCell>
        <mxCell id="WTrDPClQdcEuxtkSHwnH-68" value="导入信息写入 mysql" style="edgeLabel;resizable=0;html=1;align=center;verticalAlign=middle;" parent="WTrDPClQdcEuxtkSHwnH-67" connectable="0" vertex="1">
          <mxGeometry relative="1" as="geometry" />
        </mxCell>
        <mxCell id="WTrDPClQdcEuxtkSHwnH-70" value="&lt;font style=&quot;font-size: 18px&quot;&gt;xxl-job&lt;/font&gt;" style="rounded=1;whiteSpace=wrap;html=1;fillColor=#FFD966;" parent="1" vertex="1">
          <mxGeometry x="370" y="490" width="120" height="60" as="geometry" />
        </mxCell>
        <mxCell id="WTrDPClQdcEuxtkSHwnH-75" value="" style="endArrow=classic;html=1;exitX=1;exitY=0.5;exitDx=0;exitDy=0;" parent="1" source="WTrDPClQdcEuxtkSHwnH-70" edge="1">
          <mxGeometry relative="1" as="geometry">
            <mxPoint x="545" y="620" as="sourcePoint" />
            <mxPoint x="770" y="460" as="targetPoint" />
            <Array as="points">
              <mxPoint x="770" y="520" />
            </Array>
          </mxGeometry>
        </mxCell>
        <mxCell id="WTrDPClQdcEuxtkSHwnH-78" value="定时触发 10s&lt;br&gt;1.&amp;nbsp;扫描该业务参数下准备完成的导入记录&lt;br&gt;2.&amp;nbsp;循环处理该导入任务下的每条导入明细" style="edgeLabel;html=1;align=center;verticalAlign=middle;resizable=0;points=[];" parent="WTrDPClQdcEuxtkSHwnH-75" vertex="1" connectable="0">
          <mxGeometry x="-0.5273" y="1" relative="1" as="geometry">
            <mxPoint x="57" y="1" as="offset" />
          </mxGeometry>
        </mxCell>
        <mxCell id="WTrDPClQdcEuxtkSHwnH-79" value="" style="endArrow=classic;html=1;entryX=0.42;entryY=0.972;entryDx=0;entryDy=0;entryPerimeter=0;" parent="1" target="WTrDPClQdcEuxtkSHwnH-51" edge="1">
          <mxGeometry relative="1" as="geometry">
            <mxPoint x="249" y="350" as="sourcePoint" />
            <mxPoint x="660" y="420" as="targetPoint" />
          </mxGeometry>
        </mxCell>
        <mxCell id="WTrDPClQdcEuxtkSHwnH-80" value="1. 用户上传文件" style="edgeLabel;resizable=0;html=1;align=center;verticalAlign=middle;" parent="WTrDPClQdcEuxtkSHwnH-79" connectable="0" vertex="1">
          <mxGeometry relative="1" as="geometry">
            <mxPoint x="0.009999999999999787" as="offset" />
          </mxGeometry>
        </mxCell>
        <mxCell id="WTrDPClQdcEuxtkSHwnH-83" value="" style="endArrow=classic;html=1;" parent="1" edge="1">
          <mxGeometry relative="1" as="geometry">
            <mxPoint x="255" y="350" as="sourcePoint" />
            <mxPoint x="460" y="350" as="targetPoint" />
            <Array as="points">
              <mxPoint x="460" y="350" />
            </Array>
          </mxGeometry>
        </mxCell>
        <mxCell id="WTrDPClQdcEuxtkSHwnH-84" value="2.&amp;nbsp;调用后端接口" style="edgeLabel;resizable=0;html=1;align=center;verticalAlign=middle;" parent="WTrDPClQdcEuxtkSHwnH-83" connectable="0" vertex="1">
          <mxGeometry relative="1" as="geometry">
            <mxPoint x="-8.81" y="-2.3200000000000003" as="offset" />
          </mxGeometry>
        </mxCell>
        <mxCell id="WTrDPClQdcEuxtkSHwnH-86" value="" style="endArrow=classic;html=1;exitX=0.923;exitY=0.6;exitDx=0;exitDy=0;exitPerimeter=0;" parent="1" source="WTrDPClQdcEuxtkSHwnH-47" edge="1">
          <mxGeometry relative="1" as="geometry">
            <mxPoint x="500" y="420" as="sourcePoint" />
            <mxPoint x="700" y="401" as="targetPoint" />
          </mxGeometry>
        </mxCell>
        <mxCell id="WTrDPClQdcEuxtkSHwnH-87" value="3.&amp;nbsp;调用导入系统" style="edgeLabel;resizable=0;html=1;align=center;verticalAlign=middle;" parent="WTrDPClQdcEuxtkSHwnH-86" connectable="0" vertex="1">
          <mxGeometry relative="1" as="geometry" />
        </mxCell>
        <mxCell id="WTrDPClQdcEuxtkSHwnH-89" value="4. 跳转到处理中页面&amp;nbsp;" style="html=1;verticalAlign=bottom;endArrow=open;dashed=1;endSize=8;entryX=1.033;entryY=0.58;entryDx=0;entryDy=0;entryPerimeter=0;" parent="1" edge="1">
          <mxGeometry x="-0.0614" y="-3" relative="1" as="geometry">
            <mxPoint x="427.03" y="389.5" as="sourcePoint" />
            <mxPoint x="280" y="389.5" as="targetPoint" />
            <Array as="points" />
            <mxPoint as="offset" />
          </mxGeometry>
        </mxCell>
        <mxCell id="GSRdQ-xVuo5weTgytqco-1" value="" style="curved=1;endArrow=classic;html=1;exitX=1;exitY=1;exitDx=0;exitDy=0;entryX=0.2;entryY=0.864;entryDx=0;entryDy=0;entryPerimeter=0;" edge="1" parent="1" source="WTrDPClQdcEuxtkSHwnH-46" target="WTrDPClQdcEuxtkSHwnH-47">
          <mxGeometry width="50" height="50" relative="1" as="geometry">
            <mxPoint x="560" y="420" as="sourcePoint" />
            <mxPoint x="610" y="370" as="targetPoint" />
            <Array as="points">
              <mxPoint x="350" y="410" />
            </Array>
          </mxGeometry>
        </mxCell>
        <mxCell id="GSRdQ-xVuo5weTgytqco-3" value="定时查询导入状态和进度" style="edgeLabel;html=1;align=center;verticalAlign=middle;resizable=0;points=[];" vertex="1" connectable="0" parent="GSRdQ-xVuo5weTgytqco-1">
          <mxGeometry x="-0.4188" y="-1" relative="1" as="geometry">
            <mxPoint x="41.46" as="offset" />
          </mxGeometry>
        </mxCell>
        <mxCell id="GSRdQ-xVuo5weTgytqco-2" value="" style="curved=1;endArrow=classic;html=1;entryX=0.75;entryY=1;entryDx=0;entryDy=0;exitX=0.231;exitY=0.927;exitDx=0;exitDy=0;exitPerimeter=0;" edge="1" parent="1">
          <mxGeometry width="50" height="50" relative="1" as="geometry">
            <mxPoint x="445.2700000000002" y="434" as="sourcePoint" />
            <mxPoint x="250.00445594024177" y="436.94921804600403" as="targetPoint" />
            <Array as="points">
              <mxPoint x="355.24" y="467.03" />
            </Array>
          </mxGeometry>
        </mxCell>
        <mxCell id="GSRdQ-xVuo5weTgytqco-4" value="返回状态和进度" style="edgeLabel;html=1;align=center;verticalAlign=middle;resizable=0;points=[];" vertex="1" connectable="0" parent="GSRdQ-xVuo5weTgytqco-2">
          <mxGeometry x="0.3875" y="-6" relative="1" as="geometry">
            <mxPoint x="32.68" y="0.94" as="offset" />
          </mxGeometry>
        </mxCell>
      </root>
    </mxGraphModel>
  </diagram>
</mxfile>
